<?xml version="1.0" standalone="no"?>
<!DOCTYPE svg PUBLIC "-//W3C//DTD SVG 20010904//EN"
 "http://www.w3.org/TR/2001/REC-SVG-20010904/DTD/svg10.dtd">
<svg version="1.0" xmlns="http://www.w3.org/2000/svg"
 width="500.000000pt" height="500.000000pt" viewBox="0 0 500.000000 500.000000"
 preserveAspectRatio="xMidYMid meet">
<metadata>
Created by potrace 1.11, written by Peter Selinger 2001-2013
</metadata>
<g transform="translate(0.000000,500.000000) scale(0.100000,-0.100000)"
fill="#000000" stroke="none">
<path d="M1247 3742 l-1247 -1247 180 -180 180 -180 1069 1069 c965 965 1071
1068 1087 1056 9 -8 411 -409 894 -891 l877 -877 -891 -891 -891 -891 -178
178 -177 177 710 710 c391 390 710 713 710 716 0 4 -80 86 -177 183 l-177 177
-713 -713 -713 -713 -177 178 -178 177 713 713 714 714 -177 176 c-98 98 -180
177 -184 177 -3 0 -407 -400 -896 -890 l-890 -890 890 -890 c489 -490 894
-890 899 -890 5 0 569 560 1253 1245 1114 1113 1244 1247 1232 1262 -30 36
-2481 2483 -2487 2483 -4 0 -568 -561 -1255 -1248z"/>
</g>
</svg>
